<svg xmlns="http://www.w3.org/2000/svg" xmlns:xlink="http://www.w3.org/1999/xlink" width="3000" zoomAndPan="magnify" viewBox="0 0 2250 2250.000011" height="3000" preserveAspectRatio="xMidYMid meet" version="1.0"><defs><g/><clipPath id="2e463da47d"><path d="M 756 552.050781 L 1494 552.050781 L 1494 1358.691406 L 756 1358.691406 Z M 756 552.050781 " clip-rule="nonzero"/></clipPath></defs><g clip-path="url(#2e463da47d)"><path fill="#202020" d="M 765.125 1358.433594 L 773.980469 1358.433594 L 773.980469 1012.117188 L 915.886719 944.769531 L 915.886719 1358.433594 L 1014.910156 1358.433594 L 1014.910156 878.167969 L 933.644531 916.742188 L 933.644531 581.109375 L 1156.835938 698.273438 L 1156.835938 873.644531 L 1075.550781 929.195312 L 1075.550781 1358.433594 L 1174.570312 1358.433594 L 1174.570312 882.980469 L 1316.476562 786.046875 L 1316.476562 985.074219 L 1235.210938 951.753906 L 1235.210938 1358.433594 L 1334.230469 1358.433594 L 1334.230469 1011.464844 L 1476.136719 1069.632812 L 1476.136719 1358.433594 L 1493.875 1358.433594 L 1493.875 1057.792969 L 1334.230469 992.351562 L 1334.230469 752.496094 L 1174.570312 861.519531 L 1174.570312 687.613281 L 915.886719 551.816406 L 915.886719 925.171875 L 756.246094 1000.933594 L 756.246094 1358.433594 Z M 1316.476562 1004.1875 L 1316.476562 1340.6875 L 1252.945312 1340.6875 L 1252.945312 978.144531 Z M 1156.835938 895.109375 L 1156.835938 1340.6875 L 1093.285156 1340.6875 L 1093.285156 938.511719 Z M 933.644531 936.335938 L 997.171875 906.195312 L 997.171875 1340.6875 L 933.644531 1340.6875 L 933.644531 936.335938 " fill-opacity="1" fill-rule="evenodd"/></g><g fill="#202020" fill-opacity="1"><g transform="translate(581.21309, 1573.26874)"><g><path d="M 88.15625 -98.765625 L 88.15625 -34.859375 C 88.15625 -23.597656 84.753906 -14.75 77.953125 -8.3125 C 71.160156 -1.875 61.816406 1.34375 49.921875 1.34375 C 38.035156 1.34375 28.835938 -1.894531 22.328125 -8.375 C 15.816406 -14.863281 12.5625 -23.78125 12.5625 -35.125 L 12.5625 -98.765625 L 24.046875 -98.765625 L 24.046875 -34.3125 C 24.046875 -26.070312 26.296875 -19.742188 30.796875 -15.328125 C 35.304688 -10.921875 41.929688 -8.71875 50.671875 -8.71875 C 59.003906 -8.71875 65.421875 -10.9375 69.921875 -15.375 C 74.421875 -19.8125 76.671875 -26.171875 76.671875 -34.453125 L 76.671875 -98.765625 Z M 88.15625 -98.765625 "/></g></g></g><g fill="#202020" fill-opacity="1"><g transform="translate(710.555098, 1573.26874)"><g><path d="M 90.734375 0 L 77.625 0 L 23.640625 -82.890625 L 23.109375 -82.890625 C 23.828125 -73.160156 24.1875 -64.242188 24.1875 -56.140625 L 24.1875 0 L 13.578125 0 L 13.578125 -98.765625 L 26.546875 -98.765625 L 80.390625 -16.21875 L 80.9375 -16.21875 C 80.84375 -17.425781 80.640625 -21.328125 80.328125 -27.921875 C 80.015625 -34.523438 79.898438 -39.25 79.984375 -42.09375 L 79.984375 -98.765625 L 90.734375 -98.765625 Z M 90.734375 0 "/></g></g></g><g fill="#202020" fill-opacity="1"><g transform="translate(843.476507, 1573.26874)"><g><path d="M 69.3125 -26.28125 C 69.3125 -17.582031 66.160156 -10.800781 59.859375 -5.9375 C 53.554688 -1.082031 45 1.34375 34.1875 1.34375 C 22.476562 1.34375 13.46875 -0.160156 7.15625 -3.171875 L 7.15625 -14.25 C 11.207031 -12.539062 15.617188 -11.191406 20.390625 -10.203125 C 25.171875 -9.210938 29.90625 -8.71875 34.59375 -8.71875 C 42.25 -8.71875 48.007812 -10.171875 51.875 -13.078125 C 55.75 -15.984375 57.6875 -20.023438 57.6875 -25.203125 C 57.6875 -28.617188 57 -31.421875 55.625 -33.609375 C 54.257812 -35.796875 51.960938 -37.8125 48.734375 -39.65625 C 45.515625 -41.5 40.617188 -43.59375 34.046875 -45.9375 C 24.859375 -49.226562 18.289062 -53.125 14.34375 -57.625 C 10.40625 -62.132812 8.4375 -68.015625 8.4375 -75.265625 C 8.4375 -82.867188 11.296875 -88.921875 17.015625 -93.421875 C 22.742188 -97.929688 30.3125 -100.1875 39.71875 -100.1875 C 49.539062 -100.1875 58.570312 -98.382812 66.8125 -94.78125 L 63.234375 -84.78125 C 55.078125 -88.207031 47.148438 -89.921875 39.453125 -89.921875 C 33.367188 -89.921875 28.613281 -88.613281 25.1875 -86 C 21.769531 -83.382812 20.0625 -79.757812 20.0625 -75.125 C 20.0625 -71.695312 20.691406 -68.890625 21.953125 -66.703125 C 23.210938 -64.523438 25.335938 -62.523438 28.328125 -60.703125 C 31.328125 -58.878906 35.914062 -56.863281 42.09375 -54.65625 C 52.445312 -50.957031 59.570312 -46.988281 63.46875 -42.75 C 67.363281 -38.519531 69.3125 -33.03125 69.3125 -26.28125 Z M 69.3125 -26.28125 "/></g></g></g><g fill="#202020" fill-opacity="1"><g transform="translate(948.032821, 1573.26874)"><g><path d="M 55.875 -89.921875 C 45.019531 -89.921875 36.445312 -86.304688 30.15625 -79.078125 C 23.875 -71.847656 20.734375 -61.953125 20.734375 -49.390625 C 20.734375 -36.460938 23.757812 -26.472656 29.8125 -19.421875 C 35.875 -12.367188 44.515625 -8.84375 55.734375 -8.84375 C 62.628906 -8.84375 70.488281 -10.082031 79.3125 -12.5625 L 79.3125 -2.5 C 72.46875 0.0625 64.023438 1.34375 53.984375 1.34375 C 39.429688 1.34375 28.203125 -3.066406 20.296875 -11.890625 C 12.390625 -20.710938 8.4375 -33.253906 8.4375 -49.515625 C 8.4375 -59.691406 10.335938 -68.609375 14.140625 -76.265625 C 17.953125 -83.929688 23.445312 -89.832031 30.625 -93.96875 C 37.8125 -98.113281 46.269531 -100.1875 56 -100.1875 C 66.363281 -100.1875 75.421875 -98.296875 83.171875 -94.515625 L 78.296875 -84.65625 C 70.816406 -88.164062 63.34375 -89.921875 55.875 -89.921875 Z M 55.875 -89.921875 "/></g></g></g><g fill="#202020" fill-opacity="1"><g transform="translate(1063.935199, 1573.26874)"><g><path d="M 25.0625 -41.078125 L 25.0625 0 L 13.578125 0 L 13.578125 -98.765625 L 40.671875 -98.765625 C 52.785156 -98.765625 61.734375 -96.445312 67.515625 -91.8125 C 73.304688 -87.175781 76.203125 -80.195312 76.203125 -70.875 C 76.203125 -57.8125 69.582031 -48.984375 56.34375 -44.390625 L 83.171875 0 L 69.578125 0 L 45.671875 -41.078125 Z M 25.0625 -50.9375 L 40.8125 -50.9375 C 48.914062 -50.9375 54.859375 -52.546875 58.640625 -55.765625 C 62.421875 -58.984375 64.3125 -63.816406 64.3125 -70.265625 C 64.3125 -76.796875 62.382812 -81.5 58.53125 -84.375 C 54.6875 -87.257812 48.507812 -88.703125 40 -88.703125 L 25.0625 -88.703125 Z M 25.0625 -50.9375 "/></g></g></g><g fill="#202020" fill-opacity="1"><g transform="translate(1178.081642, 1573.26874)"><g><path d="M 13.578125 0 L 13.578125 -98.765625 L 25.0625 -98.765625 L 25.0625 0 Z M 13.578125 0 "/></g></g></g><g fill="#202020" fill-opacity="1"><g transform="translate(1245.290638, 1573.26874)"><g><path d="M 76.203125 -69.984375 C 76.203125 -59.992188 72.789062 -52.304688 65.96875 -46.921875 C 59.144531 -41.535156 49.382812 -38.84375 36.6875 -38.84375 L 25.0625 -38.84375 L 25.0625 0 L 13.578125 0 L 13.578125 -98.765625 L 39.1875 -98.765625 C 63.863281 -98.765625 76.203125 -89.171875 76.203125 -69.984375 Z M 25.0625 -48.703125 L 35.40625 -48.703125 C 45.582031 -48.703125 52.941406 -50.347656 57.484375 -53.640625 C 62.035156 -56.929688 64.3125 -62.203125 64.3125 -69.453125 C 64.3125 -75.984375 62.171875 -80.847656 57.890625 -84.046875 C 53.617188 -87.242188 46.957031 -88.84375 37.90625 -88.84375 L 25.0625 -88.84375 Z M 25.0625 -48.703125 "/></g></g></g><g fill="#202020" fill-opacity="1"><g transform="translate(1357.208398, 1573.26874)"><g><path d="M 43.984375 0 L 32.5 0 L 32.5 -88.5625 L 1.21875 -88.5625 L 1.21875 -98.765625 L 75.265625 -98.765625 L 75.265625 -88.5625 L 43.984375 -88.5625 Z M 43.984375 0 "/></g></g></g><g fill="#202020" fill-opacity="1"><g transform="translate(1462.372568, 1573.26874)"><g><path d="M 68.640625 0 L 13.578125 0 L 13.578125 -98.765625 L 68.640625 -98.765625 L 68.640625 -88.5625 L 25.0625 -88.5625 L 25.0625 -56.75 L 66 -56.75 L 66 -46.609375 L 25.0625 -46.609375 L 25.0625 -10.265625 L 68.640625 -10.265625 Z M 68.640625 0 "/></g></g></g><g fill="#202020" fill-opacity="1"><g transform="translate(1567.941954, 1573.26874)"><g><path d="M 92.421875 -50.328125 C 92.421875 -34.023438 87.992188 -21.5625 79.140625 -12.9375 C 70.296875 -4.3125 57.5625 0 40.9375 0 L 13.578125 0 L 13.578125 -98.765625 L 43.84375 -98.765625 C 59.195312 -98.765625 71.128906 -94.507812 79.640625 -86 C 88.160156 -77.488281 92.421875 -65.597656 92.421875 -50.328125 Z M 80.265625 -49.921875 C 80.265625 -62.804688 77.03125 -72.515625 70.5625 -79.046875 C 64.101562 -85.578125 54.5 -88.84375 41.75 -88.84375 L 25.0625 -88.84375 L 25.0625 -9.9375 L 39.046875 -9.9375 C 52.742188 -9.9375 63.035156 -13.300781 69.921875 -20.03125 C 76.816406 -26.757812 80.265625 -36.722656 80.265625 -49.921875 Z M 80.265625 -49.921875 "/></g></g></g><g fill="#202020" fill-opacity="1"><g transform="translate(885.593803, 1682.166513)"><g><path d="M 24.328125 0 L 17.96875 0 L 17.96875 -48.984375 L 0.671875 -48.984375 L 0.671875 -54.625 L 41.625 -54.625 L 41.625 -48.984375 L 24.328125 -48.984375 Z M 24.328125 0 "/></g></g></g><g fill="#202020" fill-opacity="1"><g transform="translate(985.90517, 1682.166513)"><g><path d="M 54.921875 -27.390625 C 54.921875 -18.640625 52.707031 -11.757812 48.28125 -6.75 C 43.863281 -1.75 37.71875 0.75 29.84375 0.75 C 21.800781 0.75 15.59375 -1.707031 11.21875 -6.625 C 6.851562 -11.550781 4.671875 -18.492188 4.671875 -27.453125 C 4.671875 -36.347656 6.863281 -43.242188 11.25 -48.140625 C 15.632812 -53.035156 21.859375 -55.484375 29.921875 -55.484375 C 37.765625 -55.484375 43.890625 -52.988281 48.296875 -48 C 52.710938 -43.019531 54.921875 -36.148438 54.921875 -27.390625 Z M 11.390625 -27.390625 C 11.390625 -19.992188 12.960938 -14.378906 16.109375 -10.546875 C 19.265625 -6.722656 23.84375 -4.8125 29.84375 -4.8125 C 35.90625 -4.8125 40.476562 -6.71875 43.5625 -10.53125 C 46.65625 -14.34375 48.203125 -19.960938 48.203125 -27.390625 C 48.203125 -34.734375 46.660156 -40.300781 43.578125 -44.09375 C 40.503906 -47.894531 35.953125 -49.796875 29.921875 -49.796875 C 23.867188 -49.796875 19.265625 -47.882812 16.109375 -44.0625 C 12.960938 -40.238281 11.390625 -34.679688 11.390625 -27.390625 Z M 11.390625 -27.390625 "/></g></g></g><g fill="#202020" fill-opacity="1"><g transform="translate(1103.466194, 1682.166513)"><g><path d="M 48.75 -54.625 L 48.75 -19.28125 C 48.75 -13.050781 46.867188 -8.15625 43.109375 -4.59375 C 39.347656 -1.03125 34.179688 0.75 27.609375 0.75 C 21.035156 0.75 15.945312 -1.039062 12.34375 -4.625 C 8.75 -8.21875 6.953125 -13.148438 6.953125 -19.421875 L 6.953125 -54.625 L 13.296875 -54.625 L 13.296875 -18.984375 C 13.296875 -14.421875 14.539062 -10.914062 17.03125 -8.46875 C 19.519531 -6.03125 23.179688 -4.8125 28.015625 -4.8125 C 32.628906 -4.8125 36.179688 -6.039062 38.671875 -8.5 C 41.160156 -10.957031 42.40625 -14.472656 42.40625 -19.046875 L 42.40625 -54.625 Z M 48.75 -54.625 "/></g></g></g><g fill="#202020" fill-opacity="1"><g transform="translate(1217.14418, 1682.166513)"><g><path d="M 13.859375 -22.71875 L 13.859375 0 L 7.515625 0 L 7.515625 -54.625 L 22.484375 -54.625 C 29.191406 -54.625 34.144531 -53.335938 37.34375 -50.765625 C 40.539062 -48.203125 42.140625 -44.34375 42.140625 -39.1875 C 42.140625 -31.96875 38.476562 -27.085938 31.15625 -24.546875 L 45.984375 0 L 38.484375 0 L 25.25 -22.71875 Z M 13.859375 -28.171875 L 22.5625 -28.171875 C 27.050781 -28.171875 30.335938 -29.0625 32.421875 -30.84375 C 34.515625 -32.625 35.5625 -35.296875 35.5625 -38.859375 C 35.5625 -42.460938 34.492188 -45.0625 32.359375 -46.65625 C 30.234375 -48.257812 26.820312 -49.0625 22.125 -49.0625 L 13.859375 -49.0625 Z M 13.859375 -28.171875 "/></g></g></g><g fill="#202020" fill-opacity="1"><g transform="translate(1322.421358, 1682.166513)"><g><path d="M 38.328125 -14.53125 C 38.328125 -9.726562 36.582031 -5.976562 33.09375 -3.28125 C 29.613281 -0.59375 24.882812 0.75 18.90625 0.75 C 12.425781 0.75 7.441406 -0.0820312 3.953125 -1.75 L 3.953125 -7.890625 C 6.203125 -6.941406 8.644531 -6.191406 11.28125 -5.640625 C 13.925781 -5.085938 16.539062 -4.8125 19.125 -4.8125 C 23.363281 -4.8125 26.550781 -5.613281 28.6875 -7.21875 C 30.832031 -8.832031 31.90625 -11.070312 31.90625 -13.9375 C 31.90625 -15.832031 31.523438 -17.382812 30.765625 -18.59375 C 30.003906 -19.800781 28.734375 -20.914062 26.953125 -21.9375 C 25.171875 -22.957031 22.460938 -24.113281 18.828125 -25.40625 C 13.742188 -27.226562 10.113281 -29.382812 7.9375 -31.875 C 5.757812 -34.363281 4.671875 -37.613281 4.671875 -41.625 C 4.671875 -45.832031 6.25 -49.179688 9.40625 -51.671875 C 12.570312 -54.160156 16.757812 -55.40625 21.96875 -55.40625 C 27.394531 -55.40625 32.390625 -54.410156 36.953125 -52.421875 L 34.96875 -46.890625 C 30.457031 -48.785156 26.070312 -49.734375 21.8125 -49.734375 C 18.457031 -49.734375 15.832031 -49.007812 13.9375 -47.5625 C 12.039062 -46.113281 11.09375 -44.109375 11.09375 -41.546875 C 11.09375 -39.648438 11.441406 -38.097656 12.140625 -36.890625 C 12.835938 -35.679688 14.015625 -34.570312 15.671875 -33.5625 C 17.328125 -32.5625 19.863281 -31.445312 23.28125 -30.21875 C 29.007812 -28.175781 32.945312 -25.984375 35.09375 -23.640625 C 37.25 -21.304688 38.328125 -18.269531 38.328125 -14.53125 Z M 38.328125 -14.53125 "/></g></g></g></svg>